# xmcd
#
# Track frame offsets: 
#        150
#        20738
#        36553
#        47667
#        75092
#        91481
#        107974
#        120665
#        136771
#        153795
#        164251
#        180185
#        194344
#        211386
#        229801
#
# Disc length: 3229 seconds
#
# Revision: 4
# Processed by: cddbd v1.5.2PL0 Copyright (c) Steve Scherf et al.
# Submitted via: ExactAudioCopy v0.95b2
#
DISCID=bb0c9b0f
DTITLE=David Nevue - The Vigil
DYEAR=1999
DGENRE=New Age
TTITLE0=The Vigil
TTITLE1=Watching the Clock
TTITLE2=Dark Clouds Gather
TTITLE3=A Midnight Rain
TTITLE4=Wandering the Night
TTITLE5=Home
TTITLE6=Chasing Shadows
TTITLE7=Psalm
TTITLE8=4 am By Candlelight
TTITLE9=Second Wind
TTITLE10=A Turn To Grace
TTITLE11=Lullaby
TTITLE12=The Passing of the Dark
TTITLE13=Waiting For the Sun
TTITLE14=The Brightest Morning
EXTD=
EXTT0=
EXTT1=
EXTT2=
EXTT3=
EXTT4=
EXTT5=
EXTT6=
EXTT7=
EXTT8=
EXTT9=
EXTT10=
EXTT11=
EXTT12=
EXTT13=
EXTT14=
PLAYORDER=
